<svg width="35" height="35" viewBox="0 0 35 35" fill="none" xmlns="http://www.w3.org/2000/svg">
<path d="M26.873 19.0229C26.861 19.0241 26.849 19.0241 26.837 19.0241C26.5237 19.0241 26.2609 18.7795 26.2422 18.4627C26.0989 16.0394 25.1007 13.7361 23.4339 11.9765C21.7659 10.2174 19.5188 9.09766 17.1067 8.82507C16.7792 8.7881 16.5443 8.49255 16.5812 8.16527C16.6182 7.83799 16.9148 7.60067 17.241 7.63933C19.9322 7.94365 22.4389 9.19252 24.2996 11.1555C26.1603 13.1185 27.2733 15.6887 27.4333 18.3923C27.4526 18.7211 27.2018 19.0037 26.873 19.0229ZM16.9472 11.9458C16.9841 11.6189 17.2782 11.3849 17.6075 11.4204C19.2098 11.6016 20.7031 12.3455 21.8108 13.5147C22.9189 14.6837 23.5819 16.2141 23.6773 17.8242C23.6965 18.153 23.4459 18.4356 23.1169 18.4548C23.1049 18.456 23.0929 18.456 23.081 18.456C22.7677 18.456 22.5045 18.2119 22.4863 17.8951C22.4075 16.5649 21.8598 15.3008 20.9449 14.3355C20.0303 13.3702 18.7969 12.7556 17.4726 12.6056C17.1457 12.5691 16.9107 12.2731 16.9472 11.9458ZM25.9129 26.7185C25.8952 26.7367 25.2025 27.3913 25.1836 27.4095C23.9009 28.6429 21.8853 28.8878 20.2121 28.4959C19.6012 28.3531 19.0066 28.1476 18.4312 27.898C15.8359 26.77 13.3736 24.7747 11.3961 22.6769C9.40655 20.5893 7.54616 18.0244 6.55909 15.3724C6.34017 14.7843 6.16699 14.1792 6.0566 13.5616C5.75481 11.8702 6.10707 9.87071 7.40759 8.65577C7.42683 8.63754 8.11751 7.98129 8.13676 7.96408C9.42529 6.83302 10.5266 8.2679 11.5534 9.37093C12.4307 10.3128 13.9048 11.8634 13.6597 13.2796C13.5241 14.0661 12.6886 14.641 12.3983 15.4124C12.0283 16.3959 12.2029 17.3759 12.8237 18.2171C13.2396 18.78 13.7463 19.3801 14.2867 19.9368C14.8137 20.5059 15.3856 21.0443 15.9255 21.4894C16.7325 22.1545 17.7013 22.3818 18.7038 22.0643C19.4891 21.8157 20.1079 21.0124 20.9007 20.9188C22.3278 20.7498 23.7976 22.3052 24.691 23.2313C25.7372 24.3161 27.1116 25.4919 25.9129 26.7185ZM17.4996 -0.00561523C7.83547 -0.00561523 0.000976562 7.82904 0.000976562 17.4937C0.000976562 27.1579 7.83547 34.9925 17.4996 34.9925C27.1643 34.9925 34.9984 27.1579 34.9984 17.4937C34.9984 7.82904 27.1643 -0.00561523 17.4996 -0.00561523Z" fill="#00178F"/>
</svg>
