<svg width="35" height="35" viewBox="0 0 35 35" fill="none" xmlns="http://www.w3.org/2000/svg">
<path d="M17.5 0C7.83297 0 0 7.83297 0 17.5C0 27.167 7.83297 35 17.5 35C27.167 35 35 27.167 35 17.5C35 7.83297 27.167 0 17.5 0ZM7.20305 10.4159C7.20997 10.409 7.22398 10.4019 7.23107 10.395C7.23799 10.3879 7.24508 10.3879 7.252 10.381C7.26601 10.3741 7.27293 10.367 7.28694 10.3601C7.29403 10.353 7.30095 10.353 7.31496 10.3461C7.32897 10.339 7.33606 10.3321 7.35007 10.3321C7.35699 10.325 7.36408 10.325 7.37792 10.318C7.39193 10.311 7.39902 10.311 7.41303 10.304C7.41995 10.304 7.43396 10.2969 7.44104 10.2969C7.45505 10.29 7.46197 10.29 7.47598 10.2829C7.48307 10.2829 7.49708 10.276 7.504 10.276C7.51801 10.2689 7.53202 10.2689 7.54603 10.2689C7.55295 10.2689 7.56004 10.262 7.57405 10.262C7.58806 10.262 7.60207 10.2549 7.61608 10.2549C7.623 10.2549 7.62992 10.2549 7.63701 10.2549C7.65794 10.2549 7.67904 10.2549 7.70706 10.2549H27.6081C27.629 10.2549 27.6499 10.2549 27.678 10.2549C27.685 10.2549 27.692 10.2549 27.6991 10.2549C27.7131 10.2549 27.7271 10.262 27.7411 10.262C27.748 10.262 27.7549 10.2689 27.7689 10.2689C27.7829 10.2689 27.7969 10.276 27.811 10.276C27.818 10.276 27.8321 10.2829 27.839 10.2829C27.853 10.29 27.867 10.29 27.8741 10.2969C27.881 10.2969 27.895 10.304 27.9019 10.304C27.9159 10.311 27.923 10.311 27.937 10.318C27.944 10.325 27.9511 10.325 27.9651 10.3321C27.9791 10.339 27.986 10.3461 28 10.3461C28.0069 10.353 28.014 10.353 28.028 10.3601C28.042 10.367 28.0489 10.3741 28.063 10.381C28.07 10.3879 28.077 10.3879 28.0841 10.395C28.0981 10.4019 28.105 10.409 28.1121 10.4159C28.119 10.423 28.1259 10.423 28.1259 10.43L18.2211 20.321C18.067 20.4751 17.8641 20.559 17.6539 20.559C17.437 20.559 17.234 20.4751 17.087 20.321L7.18904 10.43C7.19596 10.423 7.19596 10.423 7.20305 10.4159ZM6.88792 12.411L11.9911 17.514L6.88792 22.617V12.411ZM27.601 24.766H7.70706C7.51801 24.766 7.33606 24.696 7.19596 24.5841L13.125 18.655L15.932 21.462C16.387 21.917 16.996 22.169 17.6399 22.169C18.284 22.169 18.893 21.917 19.3481 21.462L22.169 18.641L28.105 24.577C27.9791 24.696 27.7969 24.766 27.601 24.766ZM28.4059 22.589L23.3241 17.5L28.413 12.411V22.589H28.4059Z" fill="#00178F"/>
</svg>
